<svg width="27" height="28" viewBox="0 0 27 28" fill="none" xmlns="http://www.w3.org/2000/svg">
<path fill-rule="evenodd" clip-rule="evenodd" d="M2.90191 21.7758C4.33632 21.7758 5.49913 22.9386 5.49913 24.3731C5.49913 25.8075 4.33632 26.9703 2.90191 26.9703C1.4675 26.9703 0.304688 25.8075 0.304688 24.3731C0.304688 22.9386 1.4675 21.7758 2.90191 21.7758ZM13.2908 21.7758C14.7252 21.7758 15.888 22.9386 15.888 24.3731C15.888 25.8075 14.7252 26.9703 13.2908 26.9703C11.8564 26.9703 10.6936 25.8075 10.6936 24.3731C10.6936 22.9386 11.8564 21.7758 13.2908 21.7758ZM23.6797 21.7758C25.1141 21.7758 26.2769 22.9386 26.2769 24.3731C26.2769 25.8075 25.1141 26.9703 23.6797 26.9703C22.2452 26.9703 21.0825 25.8075 21.0825 24.3731C21.0825 22.9386 22.2452 21.7758 23.6797 21.7758ZM2.90191 11.3869C4.33632 11.3869 5.49913 12.5497 5.49913 13.9842C5.49913 15.4186 4.33632 16.5814 2.90191 16.5814C1.4675 16.5814 0.304688 15.4186 0.304688 13.9842C0.304688 12.5497 1.4675 11.3869 2.90191 11.3869ZM13.2908 11.3869C14.7252 11.3869 15.888 12.5497 15.888 13.9842C15.888 15.4186 14.7252 16.5814 13.2908 16.5814C11.8564 16.5814 10.6936 15.4186 10.6936 13.9842C10.6936 12.5497 11.8564 11.3869 13.2908 11.3869ZM23.6797 11.3869C25.1141 11.3869 26.2769 12.5497 26.2769 13.9842C26.2769 15.4186 25.1141 16.5814 23.6797 16.5814C22.2452 16.5814 21.0825 15.4186 21.0825 13.9842C21.0825 12.5497 22.2452 11.3869 23.6797 11.3869ZM2.90191 0.998047C4.33632 0.998047 5.49913 2.16086 5.49913 3.59527C5.49913 5.02968 4.33632 6.19249 2.90191 6.19249C1.4675 6.19249 0.304688 5.02968 0.304688 3.59527C0.304688 2.16086 1.4675 0.998047 2.90191 0.998047ZM13.2908 0.998047C14.7252 0.998047 15.888 2.16086 15.888 3.59527C15.888 5.02968 14.7252 6.19249 13.2908 6.19249C11.8564 6.19249 10.6936 5.02968 10.6936 3.59527C10.6936 2.16086 11.8564 0.998047 13.2908 0.998047ZM23.6797 0.998047C25.1141 0.998047 26.2769 2.16086 26.2769 3.59527C26.2769 5.02968 25.1141 6.19249 23.6797 6.19249C22.2452 6.19249 21.0825 5.02968 21.0825 3.59527C21.0825 2.16086 22.2452 0.998047 23.6797 0.998047Z" fill="#006AF5" fill-opacity="0.2"/>
<path fill-rule="evenodd" clip-rule="evenodd" d="M2.81143 21.8411C4.25789 21.8411 5.43048 23.0136 5.43048 24.4601C5.43048 25.9066 4.25789 27.0791 2.81143 27.0791C1.36497 27.0791 0.192383 25.9066 0.192383 24.4601C0.192383 23.0136 1.36497 21.8411 2.81143 21.8411ZM23.7638 21.8411C25.2103 21.8411 26.3829 23.0136 26.3829 24.4601C26.3829 25.9066 25.2103 27.0791 23.7638 27.0791C22.3173 27.0791 21.1448 25.9066 21.1448 24.4601C21.1448 23.0136 22.3173 21.8411 23.7638 21.8411ZM2.81143 11.3649C4.25789 11.3649 5.43048 12.5374 5.43048 13.9839C5.43048 15.4304 4.25789 16.603 2.81143 16.603C1.36497 16.603 0.192383 15.4304 0.192383 13.9839C0.192383 12.5374 1.36497 11.3649 2.81143 11.3649ZM13.2876 11.3649C14.7341 11.3649 15.9067 12.5374 15.9067 13.9839C15.9067 15.4304 14.7341 16.603 13.2876 16.603C11.8411 16.603 10.6686 15.4304 10.6686 13.9839C10.6686 12.5374 11.8411 11.3649 13.2876 11.3649ZM23.7638 11.3649C25.2103 11.3649 26.3829 12.5374 26.3829 13.9839C26.3829 15.4304 25.2103 16.603 23.7638 16.603C22.3173 16.603 21.1448 15.4304 21.1448 13.9839C21.1448 12.5374 22.3173 11.3649 23.7638 11.3649ZM2.81143 0.888672C4.25789 0.888672 5.43048 2.06126 5.43048 3.50772C5.43048 4.95418 4.25789 6.12677 2.81143 6.12677C1.36497 6.12677 0.192383 4.95418 0.192383 3.50772C0.192383 2.06126 1.36497 0.888672 2.81143 0.888672ZM13.2876 0.888672C14.7341 0.888672 15.9067 2.06126 15.9067 3.50772C15.9067 4.95418 14.7341 6.12677 13.2876 6.12677C11.8411 6.12677 10.6686 4.95418 10.6686 3.50772C10.6686 2.06126 11.8411 0.888672 13.2876 0.888672Z" fill="#006AF5"/>
<path d="M16.9574 13.9831C16.9574 11.958 15.3158 10.3164 13.2907 10.3164C11.2656 10.3164 9.62402 11.958 9.62402 13.9831C9.62402 16.0082 11.2656 17.6497 13.2907 17.6497C15.3158 17.6497 16.9574 16.0082 16.9574 13.9831Z" fill="#006AF5"/>
<path d="M9.625 12.1497C9.625 11.1372 10.4458 10.3164 11.4583 10.3164H15.125C16.1375 10.3164 16.9583 11.1372 16.9583 12.1497V15.8164C16.9583 16.8289 16.1375 17.6497 15.125 17.6497H11.4583C10.4458 17.6497 9.625 16.8289 9.625 15.8164V12.1497Z" fill="#006AF5"/>
<path d="M0 2.52474C0 1.51222 0.820811 0.691406 1.83333 0.691406H3.66667C4.67919 0.691406 5.5 1.51222 5.5 2.52474V4.35807C5.5 5.3706 4.67919 6.19141 3.66667 6.19141H1.83333C0.820811 6.19141 0 5.3706 0 4.35807V2.52474Z" fill="#006AF5"/>
</svg>
